<svg width="14" height="14" viewBox="0 0 14 14" fill="none" xmlns="http://www.w3.org/2000/svg">
<path d="M5.25004 8.16668L2.33337 5.25001L5.25004 2.33334" stroke="white" stroke-linecap="round" stroke-linejoin="round"/>
<path d="M2.33337 5.25H8.45837C8.8797 5.25 9.2969 5.33299 9.68615 5.49422C10.0754 5.65545 10.4291 5.89178 10.727 6.1897C11.0249 6.48762 11.2613 6.8413 11.4225 7.23056C11.5837 7.61981 11.6667 8.03701 11.6667 8.45833C11.6667 8.87966 11.5837 9.29686 11.4225 9.68611C11.2613 10.0754 11.0249 10.429 10.727 10.727C10.4291 11.0249 10.0754 11.2612 9.68615 11.4224C9.2969 11.5837 8.8797 11.6667 8.45837 11.6667H6.41671" stroke="white" stroke-linecap="round" stroke-linejoin="round"/>
</svg>
