<svg width="12" height="12" viewBox="0 0 12 12" fill="none" xmlns="http://www.w3.org/2000/svg">
<path d="M5.15 10H2C1.73478 10 1.48043 9.89464 1.29289 9.70711C1.10536 9.51957 1 9.26522 1 9V2.5C1 2.23479 1.10536 1.98043 1.29289 1.7929C1.48043 1.60536 1.73478 1.5 2 1.5H3.99C4.15724 1.49836 4.32223 1.5387 4.46985 1.61731C4.61747 1.69593 4.74302 1.81031 4.835 1.95L5.165 2.55C5.25605 2.68827 5.38001 2.80176 5.52575 2.8803C5.67149 2.95885 5.83445 2.99998 6 3H10C10.2652 3 10.5196 3.10536 10.7071 3.2929C10.8946 3.48043 11 3.73479 11 4V5.65" stroke="white" stroke-linecap="round" stroke-linejoin="round"/>
<path d="M7.15247 9.76501L7.61397 9.57401" stroke="white" stroke-linecap="round" stroke-linejoin="round"/>
<path d="M7.61397 8.426L7.15247 8.2345" stroke="white" stroke-linecap="round" stroke-linejoin="round"/>
<path d="M8.426 7.614L8.2345 7.1525" stroke="white" stroke-linecap="round" stroke-linejoin="round"/>
<path d="M8.426 10.386L8.2345 10.848" stroke="white" stroke-linecap="round" stroke-linejoin="round"/>
<path d="M9.57397 7.614L9.76547 7.1525" stroke="white" stroke-linecap="round" stroke-linejoin="round"/>
<path d="M9.76497 10.848L9.57397 10.386" stroke="white" stroke-linecap="round" stroke-linejoin="round"/>
<path d="M10.386 8.426L10.848 8.2345" stroke="white" stroke-linecap="round" stroke-linejoin="round"/>
<path d="M10.386 9.57401L10.848 9.7655" stroke="white" stroke-linecap="round" stroke-linejoin="round"/>
<path d="M9 10.5C9.82843 10.5 10.5 9.82843 10.5 9C10.5 8.17157 9.82843 7.5 9 7.5C8.17157 7.5 7.5 8.17157 7.5 9C7.5 9.82843 8.17157 10.5 9 10.5Z" stroke="white" stroke-linecap="round" stroke-linejoin="round"/>
</svg>
