<svg width="12" height="12" viewBox="0 0 12 12" fill="none" xmlns="http://www.w3.org/2000/svg">
<path d="M3 8C5.5 8 6.5 4 9 4C9.53043 4 10.0391 4.21071 10.4142 4.58579C10.7893 4.96086 11 5.46957 11 6C11 6.53043 10.7893 7.03914 10.4142 7.41421C10.0391 7.78929 9.53043 8 9 8C6.5 8 5.5 4 3 4C2.46957 4 1.96086 4.21071 1.58579 4.58579C1.21071 4.96086 1 5.46957 1 6C1 6.53043 1.21071 7.03914 1.58579 7.41421C1.96086 7.78929 2.46957 8 3 8Z" stroke="white" stroke-linecap="round" stroke-linejoin="round"/>
</svg>
