<svg width="10" height="10" viewBox="0 0 10 10" fill="none" xmlns="http://www.w3.org/2000/svg">
<g clip-path="url(#clip0_2224_122)">
<path d="M9.05414 7.50001L5.7208 1.66667C5.64812 1.53843 5.54272 1.43175 5.41536 1.35754C5.28799 1.28332 5.14322 1.24422 4.9958 1.24422C4.84839 1.24422 4.70362 1.28332 4.57625 1.35754C4.44889 1.43175 4.34349 1.53843 4.2708 1.66667L0.937471 7.50001C0.864005 7.62724 0.825482 7.77163 0.825808 7.91855C0.826133 8.06547 0.865295 8.20969 0.939323 8.3366C1.01335 8.46351 1.11962 8.56858 1.24734 8.64119C1.37507 8.71379 1.51972 8.75133 1.66664 8.75001H8.3333C8.47951 8.74986 8.62311 8.71124 8.74967 8.63804C8.87623 8.56484 8.98131 8.45963 9.05435 8.33297C9.12739 8.20631 9.16582 8.06267 9.16578 7.91646C9.16575 7.77025 9.12724 7.62663 9.05414 7.50001Z" stroke="#FF0000" stroke-linecap="round" stroke-linejoin="round"/>
<path d="M5 3.75V5.41667" stroke="#FF0000" stroke-linecap="round" stroke-linejoin="round"/>
<path d="M5 7.08333H5.00485" stroke="#FF0000" stroke-linecap="round" stroke-linejoin="round"/>
</g>
<defs>
<clipPath id="clip0_2224_122">
<rect width="10" height="10" fill="white"/>
</clipPath>
</defs>
</svg>
