<svg width="11" height="11" viewBox="0 0 11 11" fill="none" xmlns="http://www.w3.org/2000/svg">
<g clip-path="url(#clip0_2224_58)">
<path d="M5.5 9.16666V10.0833" stroke="white" stroke-linecap="round" stroke-linejoin="round"/>
<path d="M5.5 0.916656V1.83332" stroke="white" stroke-linecap="round" stroke-linejoin="round"/>
<path d="M7.79163 9.16666V10.0833" stroke="white" stroke-linecap="round" stroke-linejoin="round"/>
<path d="M7.79163 0.916656V1.83332" stroke="white" stroke-linecap="round" stroke-linejoin="round"/>
<path d="M0.916626 5.5H1.83329" stroke="white" stroke-linecap="round" stroke-linejoin="round"/>
<path d="M0.916626 7.79166H1.83329" stroke="white" stroke-linecap="round" stroke-linejoin="round"/>
<path d="M0.916626 3.20834H1.83329" stroke="white" stroke-linecap="round" stroke-linejoin="round"/>
<path d="M9.16663 5.5H10.0833" stroke="white" stroke-linecap="round" stroke-linejoin="round"/>
<path d="M9.16663 7.79166H10.0833" stroke="white" stroke-linecap="round" stroke-linejoin="round"/>
<path d="M9.16663 3.20834H10.0833" stroke="white" stroke-linecap="round" stroke-linejoin="round"/>
<path d="M3.20837 9.16666V10.0833" stroke="white" stroke-linecap="round" stroke-linejoin="round"/>
<path d="M3.20837 0.916656V1.83332" stroke="white" stroke-linecap="round" stroke-linejoin="round"/>
<path d="M8.25004 1.83334H2.75004C2.24378 1.83334 1.83337 2.24375 1.83337 2.75001V8.25001C1.83337 8.75627 2.24378 9.16668 2.75004 9.16668H8.25004C8.7563 9.16668 9.16671 8.75627 9.16671 8.25001V2.75001C9.16671 2.24375 8.7563 1.83334 8.25004 1.83334Z" stroke="white" stroke-linecap="round" stroke-linejoin="round"/>
<path d="M6.87496 3.66666H4.12496C3.87183 3.66666 3.66663 3.87186 3.66663 4.12499V6.87499C3.66663 7.12812 3.87183 7.33332 4.12496 7.33332H6.87496C7.12809 7.33332 7.33329 7.12812 7.33329 6.87499V4.12499C7.33329 3.87186 7.12809 3.66666 6.87496 3.66666Z" stroke="white" stroke-linecap="round" stroke-linejoin="round"/>
</g>
<defs>
<clipPath id="clip0_2224_58">
<rect width="11" height="11" fill="white"/>
</clipPath>
</defs>
</svg>
