<svg width="15" height="15" viewBox="0 0 15 15" fill="none" xmlns="http://www.w3.org/2000/svg">
<path d="M3.75 11.875V10" stroke="white" stroke-linecap="round" stroke-linejoin="round"/>
<path d="M6.25 11.875V10" stroke="white" stroke-linecap="round" stroke-linejoin="round"/>
<path d="M8.75 11.875V10" stroke="white" stroke-linecap="round" stroke-linejoin="round"/>
<path d="M11.25 11.875V10" stroke="white" stroke-linecap="round" stroke-linejoin="round"/>
<path d="M5 6.875V5.625" stroke="white" stroke-linecap="round" stroke-linejoin="round"/>
<path d="M10 6.875V5.625" stroke="white" stroke-linecap="round" stroke-linejoin="round"/>
<path d="M7.5 6.875V5.625" stroke="white" stroke-linecap="round" stroke-linejoin="round"/>
<path d="M1.25 9.375H13.75" stroke="white" stroke-linecap="round" stroke-linejoin="round"/>
<path d="M1.25 4.375C1.25 4.04348 1.3817 3.72554 1.61612 3.49112C1.85054 3.2567 2.16848 3.125 2.5 3.125H12.5C12.8315 3.125 13.1495 3.2567 13.3839 3.49112C13.6183 3.72554 13.75 4.04348 13.75 4.375V5.0625C13.4911 5.13876 13.2638 5.29677 13.1022 5.5129C12.9406 5.72903 12.8532 5.99167 12.8532 6.26156C12.8532 6.53146 12.9406 6.7941 13.1022 7.01023C13.2638 7.22636 13.4911 7.38436 13.75 7.46063V10.625C13.75 10.9565 13.6183 11.2745 13.3839 11.5089C13.1495 11.7433 12.8315 11.875 12.5 11.875H2.5C2.16848 11.875 1.85054 11.7433 1.61612 11.5089C1.3817 11.2745 1.25 10.9565 1.25 10.625V7.4375C1.50889 7.36124 1.73615 7.20323 1.8978 6.9871C2.05945 6.77097 2.1468 6.50833 2.1468 6.23844C2.1468 5.96854 2.05945 5.7059 1.8978 5.48977C1.73615 5.27364 1.50889 5.11564 1.25 5.03937V4.375Z" stroke="white" stroke-linecap="round" stroke-linejoin="round"/>
</svg>
